<?xml version="1.0" encoding="utf-8"?>
<!-- Generator: Adobe Illustrator 16.0.0, SVG Export Plug-In . SVG Version: 6.00 Build 0)  -->
<!DOCTYPE svg PUBLIC "-//W3C//DTD SVG 1.1//EN" "http://www.w3.org/Graphics/SVG/1.1/DTD/svg11.dtd">
<svg version="1.1" id="Capa_1" xmlns="http://www.w3.org/2000/svg" xmlns:xlink="http://www.w3.org/1999/xlink" x="0px" y="0px"
	 width="256px" height="259.75px" viewBox="0 0 256 259.75" enable-background="new 0 0 256 259.75" xml:space="preserve">
<g>
	<path fill="#EB6021" d="M195.277,82.471c-9.027,0-16.373,7.344-16.373,16.372c0,9.028,7.346,16.372,16.373,16.372
		s16.371-7.344,16.371-16.372C211.648,89.815,204.305,82.471,195.277,82.471z M195.277,108.839c-5.512,0-9.996-4.485-9.996-9.997
		c0-5.512,4.484-9.997,9.996-9.997s9.996,4.484,9.996,9.997C205.273,104.355,200.79,108.839,195.277,108.839z"/>
	<circle fill="#EB6021" cx="195.277" cy="98.843" r="4.411"/>
	<path fill="#EB6021" d="M38.71,188.305c-9.028,0-16.372,7.344-16.372,16.371s7.344,16.371,16.372,16.371
		s16.372-7.344,16.372-16.371S47.738,188.305,38.71,188.305z M38.71,214.672c-5.512,0-9.997-4.484-9.997-9.996
		s4.485-9.996,9.997-9.996c5.512,0,9.997,4.484,9.997,9.996S44.223,214.672,38.71,214.672z"/>
	<circle fill="#EB6021" cx="38.71" cy="204.675" r="4.411"/>
	<path fill="#EB6021" d="M84.091,19.033c-9.027,0-16.372,7.344-16.372,16.372c0,9.027,7.344,16.372,16.372,16.372
		c9.028,0,16.372-7.344,16.372-16.372C100.463,26.377,93.119,19.033,84.091,19.033z M84.091,45.401
		c-5.512,0-9.997-4.484-9.997-9.997c0-5.513,4.485-9.997,9.997-9.997c5.512,0,9.997,4.485,9.997,9.997
		C94.088,40.916,89.604,45.401,84.091,45.401z"/>
	<circle fill="#EB6021" cx="84.091" cy="35.405" r="4.411"/>
	<path fill="#EB6021" d="M156.539,186.084H123.53c-1.761,0-3.188,1.428-3.188,3.188c0,1.762,1.427,3.188,3.188,3.188h33.009
		c1.76,0,3.188-1.427,3.188-3.188C159.727,187.512,158.299,186.084,156.539,186.084z"/>
	<path fill="#EB6021" d="M156.539,201.9H123.53c-1.761,0-3.188,1.426-3.188,3.188c0,1.76,1.427,3.188,3.188,3.188h33.009
		c1.76,0,3.188-1.428,3.188-3.188C159.727,203.326,158.299,201.9,156.539,201.9z"/>
	<path fill="#EB6021" d="M156.539,217.717H123.53c-1.761,0-3.188,1.428-3.188,3.188c0,1.762,1.427,3.189,3.188,3.189h33.009
		c1.76,0,3.188-1.428,3.188-3.189C159.727,219.145,158.299,217.717,156.539,217.717z"/>
	<path fill="#EB6021" d="M247.453,72.618h-27.9V51.916c0-0.846-0.336-1.656-0.934-2.254L173.047,4.096
		c-0.598-0.598-1.408-0.934-2.254-0.934H56.138c-1.761,0-3.188,1.427-3.188,3.188v150.164H3.188c-1.761,0-3.188,1.427-3.188,3.188
		v89.946c0,1.763,1.427,3.188,3.188,3.188h178.107c1.76,0,3.188-1.427,3.188-3.188v-21.43h31.884c1.762,0,3.188-1.428,3.188-3.189
		v-99.962h27.899c4.713,0,8.547-3.834,8.547-8.547V81.166C256,76.453,252.166,72.618,247.453,72.618z M173.98,14.045l34.688,34.683
		H173.98V14.045z M178.107,246.463H6.375v-83.574h171.732V246.463z M213.178,221.844h-28.695v-62.143
		c0-1.761-1.428-3.188-3.188-3.188H59.326V9.538h108.281v42.378c0,1.761,1.427,3.188,3.188,3.188h42.385v17.515h-35.464
		c-4.713,0-8.548,3.834-8.548,8.547v35.354c0,4.713,3.835,8.547,8.548,8.547h35.464v96.777H213.178z M249.625,116.52
		c0,1.198-0.975,2.172-2.172,2.172h-69.738c-1.197,0-2.172-0.974-2.172-2.172V81.166c0-1.198,0.975-2.172,2.172-2.172h69.738
		c1.197,0,2.172,0.974,2.172,2.172V116.52z"/>
	<path fill="#EB6021" d="M239.059,90.154h-20.631c-1.76,0-3.188,1.427-3.188,3.188c0,1.761,1.428,3.188,3.188,3.188h20.631
		c1.762,0,3.188-1.427,3.188-3.188C242.247,91.581,240.82,90.154,239.059,90.154z"/>
	<path fill="#EB6021" d="M239.059,101.156h-20.631c-1.76,0-3.188,1.427-3.188,3.188c0,1.761,1.428,3.188,3.188,3.188h20.631
		c1.762,0,3.188-1.427,3.188-3.188C242.247,102.583,240.82,101.156,239.059,101.156z"/>
	<path fill="#EB6021" d="M31.914,150.945c0.387,1.374,1.641,2.322,3.067,2.322c1.426,0,2.681-0.948,3.067-2.322l5.796-20.555
		c0.079-0.281,0.12-0.572,0.12-0.865V21.419c0-1.761-1.427-3.188-3.188-3.188h-11.59c-1.761,0-3.188,1.427-3.188,3.188v108.107
		c0,0.293,0.04,0.584,0.12,0.866L31.914,150.945z M33.396,132.715h3.169l-1.585,5.621L33.396,132.715z M37.589,24.607v101.732
		h-5.216V24.607H37.589z"/>
	<path fill="#EB6021" d="M3.188,153.269h11.591c1.761,0,3.188-1.427,3.188-3.188V41.974c0-0.293-0.04-0.584-0.12-0.865
		l-5.795-20.555c-0.387-1.374-1.641-2.322-3.068-2.322c-1.427,0-2.68,0.949-3.067,2.322L0.12,41.109C0.04,41.39,0,41.681,0,41.974
		v108.107C0,151.842,1.427,153.269,3.188,153.269z M6.375,146.894V45.162h5.216v101.732H6.375L6.375,146.894z M10.568,38.786h-3.17
		l1.585-5.621L10.568,38.786z"/>
</g>
</svg>
