<?xml version="1.0" encoding="utf-8"?>
<!-- Generator: Adobe Illustrator 16.0.0, SVG Export Plug-In . SVG Version: 6.00 Build 0)  -->
<!DOCTYPE svg PUBLIC "-//W3C//DTD SVG 1.1//EN" "http://www.w3.org/Graphics/SVG/1.1/DTD/svg11.dtd">
<svg version="1.1" id="Capa_1" xmlns="http://www.w3.org/2000/svg" xmlns:xlink="http://www.w3.org/1999/xlink" x="0px" y="0px"
	 width="256px" height="207.5px" viewBox="0 0 256 207.5" enable-background="new 0 0 256 207.5" xml:space="preserve">
<g>
	<g>
		<path fill="#EB6021" d="M85.821,126.727l-36.93-31.055l37.082-31.849c8.054-6.916,8.976-19.05,2.068-27.096
			c-6.917-8.038-19.066-8.976-27.112-2.052L6.688,81.254c-4.271,3.687-6.724,9.056-6.692,14.69c0.032,5.642,2.533,10.98,6.844,14.61
			l54.249,45.592c3.599,3.021,7.99,4.504,12.35,4.504c5.482,0,10.916-2.332,14.714-6.844
			C94.981,145.697,93.947,133.57,85.821,126.727z"/>
		<path fill="#EB6021" d="M249.279,81.262l-54.24-46.579c-8.055-6.917-20.195-5.979-27.104,2.067
			c-6.886,8.046-5.986,20.172,2.066,27.096l37.082,31.849L170.18,126.75c-8.127,6.846-9.185,18.938-2.332,27.08
			c3.799,4.506,9.199,6.846,14.715,6.846c4.358,0,8.75-1.508,12.35-4.504l54.249-45.593c4.312-3.631,6.828-8.977,6.844-14.61
			C256.012,90.31,253.584,84.94,249.279,81.262z"/>
		<path fill="#EB6021" d="M145.086,0.35c-10.41-2.003-20.516,4.809-22.527,15.219l-31.665,163.66
			c-2.02,10.426,4.792,20.517,15.211,22.527c1.226,0.232,2.46,0.354,3.671,0.354c9.024,0,17.062-6.379,18.849-15.557l31.664-163.651
			C162.325,12.459,155.505,2.37,145.086,0.35z"/>
	</g>
</g>
</svg>
