<?xml version="1.0" encoding="utf-8"?>
<!-- Generator: Adobe Illustrator 16.0.0, SVG Export Plug-In . SVG Version: 6.00 Build 0)  -->
<!DOCTYPE svg PUBLIC "-//W3C//DTD SVG 1.1//EN" "http://www.w3.org/Graphics/SVG/1.1/DTD/svg11.dtd">
<svg version="1.1" id="Capa_1" xmlns="http://www.w3.org/2000/svg" xmlns:xlink="http://www.w3.org/1999/xlink" x="0px" y="0px"
	 width="256px" height="260.75px" viewBox="0 0 256 260.75" enable-background="new 0 0 256 260.75" xml:space="preserve">
<g>
	<path id="Drupal" fill="#EB6021" d="M183.934,47.604c-13.11-8.148-25.506-11.345-37.873-19.496
		C138.395,22.932,127.758,10.602,118.834,0c-1.718,17.018-6.919,23.939-12.868,28.874c-12.597,9.849-20.525,12.802-31.426,18.73
		c-9.157,4.69-58.897,34.274-58.897,97.917C15.644,209.146,69.352,256,128.982,256c59.65,0,111.373-43.156,111.373-108.515
		C240.355,82.125,191.85,52.534,183.934,47.604z M184.939,231.121c-1.244,1.227-12.629,9.119-25.983,10.365
		c-13.367,1.222-31.439,1.963-42.32-7.904c-1.726-1.732-1.249-4.18,0-5.163c1.234-1.003,2.222-1.745,3.715-1.745
		c1.494,0,1.224,0,1.982,0.494c4.947,3.953,12.366,7.145,28.194,7.145c15.848,0,26.994-4.414,31.934-8.133
		c2.229-1.723,3.217-0.238,3.473,0.75C186.173,227.91,186.67,229.402,184.939,231.121z M142.051,210.359
		c2.721-2.475,7.188-6.422,11.398-8.141c4.205-1.734,6.41-1.484,10.385-1.484c3.955,0,8.177,0.248,11.139,2.234
		c2.961,1.975,4.702,6.399,5.672,8.85c1,2.484,0,3.955-1.961,4.953c-1.723,0.975-1.979,0.485-3.711-2.711
		c-1.721-3.203-3.212-6.424-11.879-6.424c-8.654,0-11.383,2.971-15.588,6.424c-4.206,3.442-5.693,4.68-7.188,2.711
		C138.839,214.803,139.334,212.818,142.051,210.359z M231.373,163.346c0,7.641-2.467,21.447-8.422,30.078
		c-5.92,8.645-9.628,11.855-16.584,11.355c-8.916-0.75-26.723-28.367-38.105-28.873c-14.334-0.484-45.529,29.867-70.037,29.867
		c-14.854,0-19.292-2.217-24.238-5.439c-7.436-5.178-11.151-13.064-10.907-23.922c0.266-19.25,18.308-37.233,41.09-37.473
		c28.936-0.256,49.008,28.584,63.592,28.352c12.381-0.234,36.15-24.418,47.778-24.418
		C227.909,142.873,231.373,155.68,231.373,163.346z"/>
</g>
</svg>
