<svg baseProfile="tiny" xmlns="http://www.w3.org/2000/svg" width="512" height="389" viewBox="0 59.5 512 389"><path d="M112.155 67.644h84.212v236.02c0 106.374-50.97 143.496-132.414 143.496-19.944 0-45.43-3.324-62.052-8.864l9.42-68.146c11.635 3.877 26.594 6.647 43.214 6.647 35.458 0 57.62-16.067 57.62-73.687V67.644zM269.484 354.634c22.16 11.636 57.62 23.27 93.632 23.27 38.783 0 59.282-16.065 59.282-40.997 0-22.715-17.73-36.565-62.606-52.08-62.053-22.16-103.05-56.51-103.05-111.36 0-63.714 53.74-111.916 141.278-111.916 42.66 0 73.132 8.314 95.295 18.84l-18.84 67.59c-14.403-7.2-41.553-17.728-77.56-17.728-36.568 0-54.298 17.175-54.298 36.013 0 23.824 20.5 34.35 69.256 53.188 65.928 24.378 96.4 58.728 96.4 111.915 0 62.605-47.647 115.794-150.144 115.794-42.663 0-84.772-11.636-105.82-23.27l17.174-69.258z"/></svg>