<?xml version="1.0" encoding="utf-8"?>
<!-- Generator: Adobe Illustrator 16.0.0, SVG Export Plug-In . SVG Version: 6.00 Build 0)  -->
<!DOCTYPE svg PUBLIC "-//W3C//DTD SVG 1.1//EN" "http://www.w3.org/Graphics/SVG/1.1/DTD/svg11.dtd">
<svg version="1.1" xmlns="http://www.w3.org/2000/svg" xmlns:xlink="http://www.w3.org/1999/xlink" x="0px" y="0px"
	 width="194.588px" height="194.588px" viewBox="2.041 3.704 194.588 194.588" enable-background="new 2.041 3.704 194.588 194.588"
	 xml:space="preserve">
<g id="Capa_2">
	<path fill="#FFFFFF" d="M196.63,100.999c0,53.733-43.56,97.294-97.294,97.294S2.041,154.732,2.041,100.999
		c0-53.734,43.56-97.294,97.294-97.294S196.63,47.264,196.63,100.999z M71.127,71.348c3.229,2.499,5.636,5.908,6.909,9.787
		c1.828-1.674,3.985-2.948,6.333-3.742c-2.462-3.358-4.224-7.175-5.182-11.226C76.815,68.341,74.089,70.093,71.127,71.348
		 M104.229,54.078c0-4.318,2.303-15.258-2.878-16.12c-5.182-0.863-13.241,2.303-13.529,2.591c3.183,4.406,5.167,9.564,5.757,14.968
		c3.333-1.127,6.85-1.616,10.363-1.438H104.229z M105.666,142.163c1.997-1.055,3.141-3.228,2.879-5.47
		c-0.021-1.422-0.419-2.812-1.151-4.029c0.826-2.316,2.211-4.393,4.029-6.045l4.605-3.167c2.593-0.219,5.203-0.121,7.771,0.288
		l-2.015,3.166c3.063,0.817,5.911,2.291,8.348,4.317c0.659-2.092,1.85-3.976,3.454-5.47c-2.255-2.341-5.165-3.947-8.348-4.605
		c-0.067,0.702-0.263,1.386-0.576,2.017l-5.757-1.152c5.626-2.389,11.774-3.281,17.847-2.59c-0.317,1.862-0.8,3.692-1.438,5.469
		c6.045-1.15,16.696,3.454,16.696,3.454c0.075-4.013,0.755-7.991,2.015-11.802c-5.181-3.742-14.393-4.03-16.695-3.742
		c0.173,1.636,0.076,3.29-0.288,4.895c-4.384-0.625-8.818-0.817-13.241-0.575c0.404-2.55,1.5-4.939,3.167-6.909l2.592,3.742
		c4.338-3.627,9.463-6.19,14.968-7.484c-1.632-4.322-4.301-8.177-7.772-11.228c-3.741,0.865-10.362,7.197-13.816,10.651l3.166,3.742
		c-3.026,1.615-5.224,4.44-6.044,7.771c-3.337,0.267-6.577,1.249-9.5,2.879c0.848-3.482,1.14-7.077,0.863-10.65
		c1.207-3.188,2.854-6.193,4.895-8.924l2.59,2.591c1.53-2.775,3.701-5.143,6.333-6.908c-1.872-1.141-3.528-2.603-4.894-4.318
		c-2.795,1.658-5.084,4.047-6.621,6.908l2.015,0.864l-4.606,3.742c-0.96-4.634-2.817-9.034-5.469-12.954l3.742-2.015
		c-2.591-4.894-5.469-17.56-11.226-16.12c-5.758,1.439-11.803,8.924-12.091,9.212c5.514,3.131,10.161,7.582,13.529,12.953
		l4.895-3.742c2.015,7.483,4.894,23.891-5.47,32.527c-1.727-4.029-2.878-8.349-4.604-12.09c1.309-1.398,2.292-3.07,2.878-4.895
		l2.878,1.439c2.025-2.886,3.219-6.271,3.455-9.787c-2.368-0.378-4.626-1.263-6.621-2.591c-0.539,3.4-1.817,6.645-3.742,9.5
		l2.878,0.862c-0.729,1.325-1.706,2.498-2.878,3.454l-2.015-2.879l-5.182-4.317l4.318-2.303
		c-0.864-2.302-4.894-10.651-10.363-13.528c-2.801,2.767-6.003,5.096-9.499,6.908c0,0,8.924,7.771,10.362,13.816l4.606-3.742
		c4.451,5.169,6.631,11.914,6.045,18.71l-4.606-2.015c-0.399-1.595-0.979-3.14-1.727-4.605h2.303
		c-0.165-2.512-0.851-4.964-2.015-7.196c-2.022,0.331-3.971,1.014-5.758,2.016c1.715,1.865,2.906,4.147,3.455,6.621l2.016-0.576
		c0.548,1.274,0.841,2.643,0.863,4.03l-7.771-2.016c-2.04-3.485-5.335-6.06-9.211-7.195c-0.779-1.408-1.176-2.997-1.151-4.606h2.304
		c-0.049-2.507,0.546-4.983,1.727-7.196c-1.853-0.613-3.819-0.81-5.757-0.574c-0.531,2.459-0.629,4.99-0.288,7.483h2.015
		c-0.332,1.42-0.332,2.897,0,4.317c-3.486-0.863-6.799-2.324-9.787-4.317c1.412-0.808,2.984-1.299,4.605-1.438
		c-2.878-3.742-3.741-12.09-4.317-16.12c-3.812,2.057-7.876,3.604-12.09,4.604c3.88,4.168,6.479,9.365,7.484,14.97l4.317-2.304
		c2.471,2.261,5.289,4.108,8.349,5.47c2.86,1.256,5.343,3.24,7.195,5.758c-3.655-0.225-7.324-0.03-10.938,0.574
		c0.205-1.264,0.494-2.514,0.864-3.741c-4.605-0.863-15.543-6.044-17.56-1.151c-2.016,4.893-0.288,12.953-0.288,13.529
		c5.33-1.972,11.05-2.661,16.695-2.016v-5.182c5.212,0.655,10.332,1.911,15.256,3.742c-1.396,0.35-2.682,1.042-3.742,2.015
		l-1.438-1.438c-2.795,1.656-5.084,4.046-6.621,6.908c1.84,1.297,3.488,2.847,4.894,4.605c1.53-2.775,3.701-5.143,6.333-6.909
		l-2.879-2.015c1.607-0.948,3.357-1.627,5.183-2.016c4.885,1.655,8.92,5.174,11.226,9.787c1.177,5.018,1.177,10.238,0,15.256
		c-0.287,1.151-2.591,2.304-5.181,3.742h26.481l-3.167-2.015C106.804,148.375,105.684,145.321,105.666,142.163z M104.23,138.708
		c-1.089-0.51-1.687-1.701-1.439-2.879c-0.064-1.152,0.64-2.208,1.728-2.592c1.089,0.51,1.686,1.701,1.438,2.88
		C106.141,137.296,105.391,138.421,104.23,138.708z M103.942,130.646c0,0,0.575,0.288-0.288,0.864
		c-1.564,1.358-2.325,3.421-2.015,5.469c-0.575-3.166,0.287-5.469,2.303-6.045V130.646z M89.55,67.896
		c0.541,1.491,0.928,3.035,1.151,4.605c0.452-1.698,0.452-3.484,0-5.182l4.895-2.016c-1.44-4.316-3.167-16.695-8.349-15.544
		c-5.181,1.151-11.514,6.908-11.802,7.196c4.653,3.474,8.405,8.015,10.938,13.24L89.55,67.896z M30.54,97.255
		c0.463,4.066,0.071,8.185-1.15,12.09c5.736-0.408,11.5,0.276,16.982,2.015c-0.288-4.317,0-10.65,1.151-12.089
		C43.493,99.558,33.13,99.271,30.54,97.255z M73.717,85.453H73.43c-2.879-5.182-5.758-13.24-4.606-18.422
		c0,0-9.211,4.605-14.393,4.894c2.591,4.03,7.771,11.802,8.06,17.271c3.394-2.115,7.241-3.397,11.226-3.74V85.453z M119.774,46.305
		c-3.615-1.2-7.47-1.497-11.227-0.862c-1.438,3.166-0.863,10.938-0.288,14.681c2.853-0.552,5.784-0.552,8.637,0
		C116.693,55.349,117.683,50.6,119.774,46.305z M74.293,58.396c-2.024-3.621-5.014-6.611-8.635-8.637
		c-1.571,2.402-3.514,4.541-5.757,6.333c4.029,1.44,8.923,8.636,8.923,8.636C70.283,62.33,72.132,60.189,74.293,58.396z
		 M130.135,88.621c-1.864,2.887-3.137,6.115-3.741,9.498c0.862-3.25,2.548-6.226,4.894-8.635c1.132,0.885,2.105,1.955,2.878,3.166
		c2.016-1.15,8.923-7.195,10.651-13.24c-3.314-2.286-6.315-4.996-8.924-8.062c0,0-5.47,10.363-10.938,13.241L130.135,88.621z
		 M169.571,108.194c-2.261-4.101-3.726-8.595-4.317-13.241c-5.735,3.322-12.114,5.384-18.71,6.046
		c2.304,4.604,4.895,11.226,4.318,13.241C154.892,111.936,166.118,107.619,169.571,108.194z M149.998,97.832
		c2.591-4.318,10.651-9.211,14.682-11.514c-3.939-2.934-7.43-6.426-10.363-10.363c-1.44,4.893-7.772,10.938-12.378,13.816
		C145.266,91.73,148.04,94.503,149.998,97.832z M119.198,66.455c1.727-0.574,7.772,1.728,11.514,3.742
		c0.587-5.545,2.249-10.922,4.895-15.832c-4.041-0.502-7.95-1.771-11.515-3.741c0.287,2.879-3.453,12.665-5.182,16.12
		L119.198,66.455z M118.334,85.74c0.576-5.181,2.879-12.664,6.333-15.543c-4.304-0.719-8.476-2.078-12.378-4.029
		c-0.288,4.029-0.864,12.377-3.742,16.119l4.605,1.15c-0.268,3.887-1.242,7.692-2.878,11.227c2.252-3.229,3.909-6.836,4.894-10.649
		L118.334,85.74z M100.488,72.789c2.539-1.125,5.283-1.713,8.06-1.729c-1.414-3.68-2.191-7.574-2.303-11.514
		c-2.534,1.143-5.281,1.73-8.06,1.729C99.645,64.941,100.425,68.841,100.488,72.789z M153.164,63.865v-0.287
		c-2.313-2.047-5.074-3.525-8.06-4.318c-2.016,1.727-4.03,7.484-5.182,10.363c2.261,0.59,4.402,1.563,6.333,2.878
		C147.803,69.091,150.178,66.123,153.164,63.865L153.164,63.865z M54.719,79.697c-2.114-3.971-5.308-7.264-9.211-9.5
		c-2.088,2.164-4.403,4.096-6.908,5.758c0,0,7.196,5.47,8.924,10.074C49.559,83.539,51.99,81.4,54.719,79.697z M49.538,153.099
		h99.311v-1.438H49.538V153.099z M43.78,161.448v-0.288h0.576c0.293-0.328,0.293-0.823,0-1.151
		c-14.338-13.234-23.347-31.251-25.331-50.662c-0.091-0.098-0.203-0.172-0.328-0.219c-0.446-0.167-0.944,0.06-1.111,0.507
		c1.894,19.829,11.012,38.271,25.619,51.813H43.78L43.78,161.448z M154.604,161.449h0.575
		c14.521-13.607,23.621-32.014,25.618-51.813c0.225-0.24,0.294-0.586,0.18-0.893c-0.167-0.447-0.664-0.675-1.111-0.508
		s-0.674,0.665-0.507,1.111c-1.943,19.506-10.952,37.627-25.331,50.95c-0.293,0.327-0.293,0.823,0,1.151L154.604,161.449
		L154.604,161.449z M70.346,171.384c-0.087,0.284-0.286,0.729-0.598,1.331c-0.313,0.604-0.611,1.053-0.896,1.35
		c-0.105,0.111-0.283,0.2-0.533,0.265c-0.251,0.065-0.494,0.11-0.729,0.135c-0.229,0.024-0.51,0.037-0.844,0.037s-0.603,0-0.807,0
		c-0.514,0-0.909-0.017-1.188-0.051s-0.498-0.109-0.659-0.228c-0.161-0.117-0.269-0.29-0.325-0.519s-0.083-0.54-0.083-0.936v-3.945
		h1.484c0.402,0,0.725,0.037,0.969,0.111c0.245,0.074,0.462,0.231,0.654,0.474c0.117,0.148,0.23,0.388,0.339,0.719
		c0.108,0.331,0.174,0.645,0.199,0.941h0.696v-5.158h-0.696c-0.031,0.266-0.094,0.549-0.19,0.849
		c-0.096,0.301-0.212,0.54-0.348,0.72c-0.167,0.21-0.36,0.36-0.58,0.449c-0.219,0.09-0.567,0.135-1.043,0.135h-1.484v-5.232h2.069
		c0.34,0,0.643,0.006,0.909,0.019c0.266,0.013,0.495,0.031,0.687,0.056c0.371,0.05,0.762,0.339,1.174,0.867
		c0.411,0.529,0.678,1.028,0.802,1.498h0.696v-3.172H59.835v0.658c0.167,0.013,0.391,0.05,0.673,0.111
		c0.281,0.062,0.505,0.133,0.672,0.213c0.216,0.1,0.358,0.228,0.427,0.386c0.068,0.157,0.102,0.339,0.102,0.542v9.463
		c0,0.229-0.039,0.418-0.116,0.566c-0.077,0.148-0.215,0.27-0.413,0.361c-0.093,0.044-0.294,0.086-0.603,0.126
		c-0.31,0.04-0.557,0.066-0.742,0.079v0.658h10.929l0.25-3.878H70.346z M77.263,170.206c-0.362-0.173-0.747-0.324-1.155-0.454
		c-0.415-0.136-0.762-0.258-1.044-0.366c-0.281-0.108-0.515-0.225-0.7-0.348c-0.192-0.131-0.335-0.288-0.432-0.474
		c-0.096-0.186-0.144-0.417-0.144-0.696c0-0.36,0.145-0.669,0.436-0.925c0.291-0.255,0.689-0.383,1.197-0.383
		c0.618,0,1.143,0.207,1.572,0.619c0.43,0.413,0.71,0.949,0.84,1.607h0.64l-0.139-2.94h-0.668l-0.213,0.482
		c-0.235-0.131-0.54-0.242-0.914-0.334c-0.375-0.094-0.741-0.14-1.1-0.14c-0.934,0-1.679,0.26-2.236,0.779s-0.835,1.153-0.835,1.901
		c0,0.428,0.086,0.799,0.26,1.113c0.173,0.316,0.396,0.582,0.668,0.799c0.253,0.203,0.558,0.382,0.914,0.533
		c0.356,0.151,0.679,0.271,0.97,0.357c0.365,0.111,0.696,0.224,0.993,0.338c0.297,0.115,0.547,0.243,0.751,0.385
		c0.198,0.143,0.348,0.309,0.45,0.497c0.102,0.188,0.153,0.413,0.153,0.673c0,0.504-0.161,0.891-0.482,1.161
		c-0.322,0.271-0.779,0.406-1.373,0.406c-0.421,0-0.799-0.093-1.136-0.279c-0.337-0.186-0.626-0.416-0.868-0.688
		c-0.229-0.261-0.424-0.553-0.584-0.875c-0.161-0.323-0.266-0.605-0.315-0.848h-0.64l0.093,3.182h0.696l0.186-0.603
		c0.191,0.161,0.512,0.337,0.96,0.528c0.449,0.192,0.938,0.288,1.471,0.288c1.008,0,1.829-0.269,2.463-0.808
		c0.634-0.537,0.951-1.23,0.951-2.078c0-0.42-0.068-0.775-0.204-1.066c-0.136-0.291-0.331-0.547-0.584-0.77
		C77.923,170.571,77.624,170.379,77.263,170.206z M85.979,174.186c-0.124,0.043-0.335,0.079-0.636,0.106
		c-0.3,0.028-0.527,0.042-0.682,0.042c-0.334,0-0.6-0.047-0.798-0.139c-0.198-0.094-0.347-0.229-0.445-0.408
		c-0.105-0.192-0.172-0.416-0.199-0.673c-0.028-0.257-0.042-0.577-0.042-0.96v-5.112h2.607v-0.891h-2.625v-2.849H81.47v2.849h-1.688
		v0.891h1.651v6.197c0,0.705,0.156,1.251,0.469,1.638c0.312,0.386,0.852,0.58,1.619,0.58c0.52,0,0.958-0.058,1.317-0.172
		c0.358-0.114,0.739-0.256,1.141-0.422V174.186z M89.695,173.3c-0.251-0.251-0.549-0.376-0.896-0.376
		c-0.347,0-0.645,0.125-0.896,0.376c-0.25,0.25-0.375,0.549-0.375,0.896c0,0.346,0.125,0.642,0.375,0.886
		c0.251,0.244,0.549,0.366,0.896,0.366c0.346,0,0.645-0.122,0.896-0.366c0.25-0.244,0.375-0.54,0.375-0.886
		C90.07,173.849,89.945,173.55,89.695,173.3z M105.637,173.611h-7.134c0.297-0.247,0.677-0.502,1.141-0.765s0.965-0.515,1.503-0.755
		c0.902-0.402,1.574-0.715,2.014-0.94c0.438-0.226,0.822-0.496,1.15-0.812c0.297-0.284,0.512-0.611,0.645-0.982
		c0.133-0.37,0.199-0.781,0.199-1.232c0-0.945-0.373-1.7-1.117-2.266c-0.746-0.565-1.753-0.849-3.021-0.849
		c-0.581,0-1.122,0.087-1.624,0.26c-0.5,0.174-0.921,0.399-1.261,0.678c-0.347,0.284-0.612,0.596-0.798,0.933
		s-0.278,0.673-0.278,1.007c0,0.358,0.083,0.645,0.25,0.857c0.167,0.214,0.405,0.32,0.714,0.32c0.383,0,0.673-0.091,0.867-0.273
		c0.195-0.183,0.292-0.392,0.292-0.627c0-0.26-0.033-0.525-0.097-0.797c-0.065-0.272-0.12-0.508-0.163-0.705
		c0.179-0.279,0.448-0.497,0.807-0.654c0.359-0.158,0.739-0.236,1.142-0.236c0.649,0,1.181,0.181,1.596,0.542
		c0.414,0.361,0.622,0.929,0.622,1.701c0,0.531-0.044,0.94-0.131,1.228c-0.086,0.287-0.201,0.527-0.343,0.719
		c-0.217,0.29-0.456,0.534-0.72,0.732c-0.262,0.197-0.639,0.426-1.127,0.686c-0.439,0.235-0.832,0.451-1.178,0.649
		c-0.347,0.197-0.644,0.38-0.891,0.546c-0.408,0.278-0.761,0.536-1.058,0.774s-0.529,0.453-0.696,0.645v1.269h8.693V173.611z
		 M114.553,165.438c-0.607-0.285-1.334-0.428-2.181-0.428c-0.804,0-1.519,0.14-2.144,0.418s-1.135,0.658-1.53,1.141
		c-0.415,0.502-0.72,1.062-0.913,1.68c-0.195,0.618-0.293,1.296-0.293,2.031c0,0.749,0.101,1.446,0.301,2.093
		c0.201,0.646,0.506,1.21,0.914,1.692c0.391,0.465,0.896,0.829,1.521,1.096c0.625,0.266,1.336,0.398,2.135,0.398
		c0.729,0,1.391-0.114,1.984-0.344c0.594-0.229,1.107-0.568,1.541-1.02c0.42-0.439,0.751-0.991,0.992-1.656s0.361-1.418,0.361-2.26
		c0-0.698-0.098-1.368-0.291-2.008c-0.195-0.641-0.491-1.198-0.887-1.675C115.663,166.109,115.159,165.722,114.553,165.438z
		 M114.46,173.653c-0.488,0.851-1.188,1.275-2.096,1.275c-0.91,0-1.607-0.425-2.092-1.275c-0.486-0.851-0.729-1.975-0.729-3.373
		c0-1.472,0.253-2.612,0.76-3.423c0.508-0.811,1.2-1.216,2.078-1.216c0.866,0,1.551,0.405,2.055,1.216
		c0.505,0.811,0.757,1.951,0.757,3.423C115.193,171.678,114.948,172.802,114.46,173.653z M126.215,165.438
		c-0.606-0.285-1.333-0.428-2.181-0.428c-0.804,0-1.518,0.14-2.143,0.418s-1.135,0.658-1.531,1.141
		c-0.414,0.502-0.719,1.062-0.914,1.68c-0.193,0.618-0.291,1.296-0.291,2.031c0,0.749,0.1,1.446,0.301,2.093s0.506,1.21,0.914,1.692
		c0.39,0.465,0.896,0.829,1.521,1.096c0.625,0.266,1.336,0.398,2.134,0.398c0.729,0,1.392-0.114,1.985-0.344
		c0.594-0.229,1.107-0.568,1.54-1.02c0.421-0.439,0.751-0.991,0.993-1.656c0.24-0.665,0.361-1.418,0.361-2.26
		c0-0.698-0.098-1.368-0.293-2.008c-0.193-0.641-0.49-1.198-0.885-1.675C127.325,166.109,126.821,165.722,126.215,165.438z
		 M126.122,173.653c-0.488,0.851-1.188,1.275-2.097,1.275s-1.606-0.425-2.093-1.275c-0.484-0.851-0.728-1.975-0.728-3.373
		c0-1.472,0.253-2.612,0.761-3.423c0.507-0.811,1.199-1.216,2.078-1.216c0.865,0,1.551,0.405,2.055,1.216s0.756,1.951,0.756,3.423
		C126.854,171.678,126.61,172.802,126.122,173.653z M139.574,173.611h-7.134c0.297-0.247,0.677-0.502,1.141-0.765
		s0.965-0.515,1.503-0.755c0.903-0.402,1.573-0.715,2.013-0.94s0.822-0.496,1.15-0.812c0.297-0.284,0.512-0.611,0.645-0.982
		c0.134-0.37,0.2-0.781,0.2-1.232c0-0.945-0.372-1.7-1.118-2.266c-0.745-0.565-1.752-0.849-3.02-0.849
		c-0.582,0-1.123,0.087-1.623,0.26c-0.502,0.174-0.922,0.399-1.262,0.678c-0.348,0.284-0.613,0.596-0.799,0.933
		s-0.277,0.673-0.277,1.007c0,0.358,0.083,0.645,0.25,0.857c0.167,0.214,0.404,0.32,0.715,0.32c0.383,0,0.672-0.091,0.867-0.273
		s0.292-0.392,0.292-0.627c0-0.26-0.032-0.525-0.097-0.797c-0.066-0.272-0.12-0.508-0.163-0.705
		c0.179-0.279,0.448-0.497,0.808-0.654c0.357-0.158,0.738-0.236,1.141-0.236c0.649,0,1.182,0.181,1.596,0.542
		s0.621,0.929,0.621,1.701c0,0.531-0.043,0.94-0.129,1.228c-0.088,0.287-0.201,0.527-0.344,0.719
		c-0.217,0.29-0.456,0.534-0.719,0.732c-0.264,0.197-0.639,0.426-1.127,0.686c-0.439,0.235-0.832,0.451-1.179,0.649
		c-0.347,0.197-0.644,0.38-0.891,0.546c-0.408,0.278-0.761,0.536-1.058,0.774s-0.529,0.453-0.695,0.645v1.269h8.692V173.611z
		 M21.327,98.98c-0.001,0.151-0.021,0.336-0.061,0.553c-0.04,0.217-0.076,0.373-0.111,0.47c-0.065,0.16-0.155,0.274-0.271,0.344
		c-0.114,0.067-0.247,0.103-0.397,0.106l-7.02,0.135c-0.15,0.003-0.287-0.023-0.411-0.081s-0.216-0.172-0.273-0.344
		c-0.049-0.144-0.089-0.315-0.123-0.511s-0.054-0.363-0.061-0.504l-0.485,0.008l0.084,4.367l0.485-0.01
		c0.007-0.132,0.031-0.302,0.075-0.51c0.045-0.208,0.093-0.381,0.145-0.52c0.069-0.188,0.157-0.309,0.263-0.36
		c0.106-0.052,0.238-0.079,0.398-0.082l7.025-0.136c0.183-0.004,0.325,0.028,0.43,0.095c0.103,0.065,0.187,0.174,0.249,0.323
		c0.038,0.094,0.068,0.259,0.091,0.489c0.021,0.231,0.039,0.409,0.051,0.532l0.485-0.01l-0.084-4.367L21.327,98.98z M13.307,86.298
		l-0.393,3.925l0.482,0.048c0.022-0.148,0.091-0.363,0.202-0.643c0.109-0.28,0.214-0.479,0.313-0.598
		c0.114-0.127,0.325-0.211,0.633-0.252c0.311-0.043,0.745-0.037,1.309,0.021l4.59,0.458l-7.899,4.689l-0.274,2.758l0.481,0.049
		c0.026-0.172,0.107-0.391,0.241-0.66s0.284-0.477,0.451-0.625c0.125-0.111,0.295-0.193,0.511-0.244s0.428-0.066,0.637-0.046
		l4.756,0.476c0.631,0.063,1.071,0.138,1.327,0.222c0.256,0.086,0.438,0.214,0.549,0.385c0.056,0.078,0.109,0.267,0.159,0.565
		c0.052,0.298,0.074,0.508,0.071,0.632l0.483,0.048l0.395-3.959l-0.482-0.048c-0.016,0.104-0.08,0.315-0.2,0.633
		c-0.119,0.317-0.233,0.522-0.344,0.618c-0.143,0.133-0.365,0.219-0.672,0.259c-0.307,0.041-0.738,0.034-1.297-0.022l-4.979-0.496
		l8.48-5.063l0.06-0.591L15.83,88.13c-0.494-0.051-0.899-0.119-1.215-0.208c-0.317-0.089-0.524-0.222-0.621-0.396
		c-0.062-0.119-0.112-0.315-0.154-0.586c-0.042-0.269-0.059-0.469-0.051-0.596L13.307,86.298z M15.454,77.289l-1.844,8.252
		l2.569,0.574l0.104-0.467c-0.138-0.072-0.308-0.185-0.509-0.338c-0.203-0.152-0.39-0.318-0.56-0.496
		c-0.17-0.179-0.316-0.365-0.438-0.558c-0.123-0.193-0.176-0.366-0.162-0.517c0.02-0.191,0.048-0.391,0.088-0.597
		c0.038-0.206,0.073-0.378,0.104-0.516l0.086-0.388l7.632,1.705c0.183,0.041,0.321,0.107,0.415,0.201
		c0.095,0.094,0.152,0.221,0.178,0.381c0.018,0.106,0.012,0.291-0.018,0.553c-0.031,0.262-0.057,0.455-0.075,0.582l0.474,0.105
		l0.999-4.47l-0.474-0.106c-0.036,0.141-0.109,0.334-0.22,0.578s-0.19,0.402-0.239,0.475c-0.103,0.142-0.221,0.229-0.356,0.265
		c-0.137,0.035-0.278,0.036-0.425,0.003l-7.572-1.691l0.086-0.389c0.04-0.178,0.088-0.371,0.145-0.579
		c0.055-0.207,0.106-0.378,0.157-0.512c0.054-0.142,0.177-0.274,0.365-0.399c0.188-0.123,0.4-0.229,0.636-0.316
		c0.224-0.088,0.458-0.156,0.701-0.213c0.242-0.055,0.45-0.086,0.619-0.09l0.104-0.459L15.454,77.289z M25.019,70.541
		c0.177,0.13,0.437,0.377,0.779,0.74c0.345,0.364,0.583,0.682,0.721,0.953c0.051,0.1,0.07,0.245,0.053,0.434
		c-0.015,0.191-0.044,0.371-0.084,0.541c-0.038,0.164-0.099,0.363-0.181,0.596c-0.081,0.232-0.147,0.419-0.197,0.563
		c-0.126,0.356-0.234,0.627-0.324,0.813c-0.092,0.186-0.198,0.318-0.32,0.402c-0.119,0.084-0.266,0.117-0.438,0.1
		c-0.172-0.018-0.397-0.074-0.671-0.17l-2.743-0.963l0.362-1.032c0.098-0.278,0.203-0.494,0.314-0.646
		c0.111-0.152,0.274-0.266,0.488-0.34c0.131-0.045,0.326-0.064,0.583-0.06c0.256,0.005,0.49,0.035,0.703,0.091l0.169-0.484
		l-3.587-1.258l-0.169,0.483c0.177,0.086,0.357,0.198,0.543,0.339s0.323,0.279,0.416,0.417c0.105,0.167,0.162,0.339,0.171,0.513
		S21.562,73,21.446,73.33l-0.362,1.033l-3.638-1.277l0.505-1.438c0.083-0.235,0.161-0.446,0.235-0.628
		c0.072-0.182,0.143-0.337,0.206-0.464c0.125-0.246,0.423-0.446,0.89-0.604c0.468-0.155,0.881-0.22,1.238-0.191l0.17-0.484
		l-2.206-0.773l-2.486,7.083l0.458,0.161c0.048-0.113,0.129-0.26,0.241-0.44s0.215-0.319,0.313-0.416
		c0.123-0.126,0.245-0.192,0.373-0.202c0.126-0.009,0.26,0.012,0.401,0.063l6.579,2.31c0.16,0.056,0.282,0.13,0.365,0.22
		c0.085,0.09,0.135,0.215,0.15,0.375c0.008,0.074-0.014,0.224-0.061,0.449c-0.047,0.225-0.089,0.403-0.126,0.535l0.458,0.161
		l2.667-7.599l-2.635-1.121L25.019,70.541z M31.957,61.59c-0.057,0.104-0.138,0.229-0.245,0.375
		c-0.105,0.146-0.212,0.259-0.316,0.339c-0.145,0.107-0.312,0.205-0.497,0.294c-0.19,0.089-0.45,0.162-0.783,0.222
		c-0.76,0.142-1.403,0.26-1.931,0.354c-0.527,0.096-1.183,0.218-1.961,0.37c0.062-0.354,0.092-0.693,0.088-1.015
		c-0.002-0.321-0.046-0.616-0.133-0.888c-0.092-0.293-0.239-0.553-0.447-0.782c-0.207-0.228-0.479-0.424-0.815-0.588
		c-0.373-0.184-0.728-0.263-1.065-0.24s-0.651,0.119-0.939,0.293c-0.296,0.181-0.56,0.414-0.795,0.699
		c-0.233,0.287-0.441,0.614-0.621,0.982l-1.966,4.021l0.437,0.215c0.064-0.111,0.153-0.241,0.263-0.391
		c0.111-0.148,0.21-0.265,0.296-0.35c0.132-0.123,0.263-0.18,0.394-0.165c0.13,0.014,0.269,0.055,0.411,0.125l6.301,3.081
		c0.16,0.078,0.277,0.17,0.354,0.273c0.076,0.106,0.109,0.233,0.103,0.383c-0.003,0.09-0.04,0.232-0.109,0.429
		c-0.072,0.196-0.126,0.345-0.166,0.448l0.436,0.213l1.801-3.686l-0.436-0.213c-0.067,0.125-0.157,0.274-0.271,0.446
		c-0.115,0.172-0.205,0.288-0.269,0.348c-0.13,0.12-0.26,0.177-0.39,0.168c-0.133-0.009-0.269-0.048-0.412-0.118l-2.765-1.351
		l0.437-0.894c0.871-0.183,1.706-0.338,2.504-0.467c0.799-0.129,1.733-0.255,2.801-0.375l1.147-2.348L31.957,61.59z M25.517,63.141
		c0.179,0.554,0.129,1.112-0.147,1.677l-0.393,0.806l-3.734-1.825l0.51-1.044c0.271-0.554,0.634-0.905,1.09-1.058
		c0.456-0.151,0.949-0.099,1.477,0.16C24.94,62.16,25.34,62.588,25.517,63.141z M37.137,54.005c-0.066,0.093-0.163,0.199-0.29,0.316
		c-0.13,0.117-0.248,0.203-0.359,0.258c-0.171,0.072-0.327,0.115-0.466,0.129s-0.3,0-0.487-0.038l-8.782-1.83l-0.297,0.459
		c0.744,1.03,1.594,2.204,2.549,3.522c0.955,1.317,1.812,2.513,2.568,3.582c0.147,0.209,0.249,0.394,0.307,0.549
		c0.06,0.158,0.092,0.347,0.096,0.566c-0.001,0.137-0.032,0.289-0.093,0.463c-0.059,0.172-0.116,0.312-0.175,0.416l0.407,0.264
		l1.984-3.067l-0.407-0.265c-0.211,0.293-0.437,0.533-0.677,0.719c-0.239,0.186-0.437,0.23-0.59,0.131
		c-0.063-0.042-0.143-0.105-0.233-0.191c-0.089-0.086-0.201-0.207-0.334-0.363c-0.134-0.163-0.278-0.344-0.435-0.538
		c-0.155-0.196-0.333-0.435-0.53-0.716l1.85-2.857l2.261,0.506l0.154,0.051l0.134,0.07c0.084,0.055,0.091,0.199,0.021,0.434
		c-0.071,0.234-0.192,0.506-0.366,0.817l0.407,0.265l2.189-3.387L37.137,54.005z M30.512,57.842l-2.375-3.261l3.959,0.812
		L30.512,57.842z M41.554,49.005c0.096-0.762-0.101-1.6-0.591-2.516l-0.517,0.236c0.162,0.276,0.285,0.563,0.371,0.858
		c0.085,0.296,0.133,0.596,0.141,0.899c0.002,0.297-0.052,0.602-0.16,0.914s-0.28,0.611-0.517,0.895
		c-0.314,0.379-0.683,0.65-1.105,0.816c-0.423,0.168-0.877,0.237-1.36,0.215c-0.488-0.026-0.981-0.146-1.48-0.355
		s-0.984-0.514-1.463-0.91c-0.54-0.449-0.98-0.914-1.324-1.393c-0.343-0.481-0.571-0.94-0.687-1.379
		c-0.116-0.459-0.13-0.896-0.037-1.314c0.091-0.418,0.279-0.797,0.562-1.136c0.246-0.298,0.533-0.505,0.861-0.624
		c0.326-0.12,0.679-0.164,1.058-0.135c0.335,0.024,0.7,0.106,1.097,0.246c0.396,0.141,0.748,0.291,1.053,0.451l0.358-0.432
		l-2.699-2.164l-0.35,0.42l0.179,0.514c-0.389,0.133-0.753,0.31-1.091,0.531c-0.338,0.223-0.661,0.516-0.966,0.885
		c-0.411,0.494-0.702,1.037-0.874,1.627c-0.172,0.593-0.217,1.192-0.134,1.799c0.083,0.613,0.291,1.215,0.626,1.8
		c0.334,0.585,0.8,1.126,1.396,1.622c0.596,0.494,1.209,0.849,1.838,1.058s1.239,0.296,1.827,0.257
		c0.593-0.039,1.145-0.192,1.66-0.455c0.514-0.262,0.956-0.615,1.325-1.06C41.123,50.49,41.457,49.766,41.554,49.005z
		 M42.294,35.141l-6.063,5.896l1.834,1.887l0.343-0.333c-0.075-0.138-0.156-0.324-0.241-0.562c-0.085-0.24-0.15-0.479-0.194-0.722
		c-0.046-0.243-0.066-0.479-0.063-0.707c0.002-0.229,0.051-0.401,0.146-0.521c0.122-0.15,0.255-0.301,0.4-0.451
		c0.146-0.152,0.27-0.277,0.37-0.375l0.285-0.276l5.452,5.607c0.13,0.134,0.208,0.266,0.235,0.396
		c0.026,0.129,0.007,0.268-0.06,0.414c-0.043,0.1-0.149,0.251-0.318,0.453s-0.296,0.352-0.381,0.446l0.338,0.348l3.284-3.192
		l-0.338-0.348c-0.108,0.098-0.274,0.219-0.5,0.363s-0.379,0.232-0.461,0.268c-0.161,0.062-0.309,0.069-0.442,0.024
		c-0.134-0.046-0.252-0.122-0.356-0.229l-5.409-5.563l0.285-0.277c0.131-0.128,0.276-0.263,0.437-0.405
		c0.161-0.144,0.298-0.258,0.412-0.344c0.124-0.089,0.298-0.134,0.525-0.133c0.225-0.002,0.46,0.025,0.705,0.081
		c0.234,0.051,0.469,0.12,0.704,0.208c0.232,0.086,0.422,0.175,0.565,0.264l0.338-0.328L42.294,35.141z M52.763,38.725
		c-0.121,0.091-0.279,0.185-0.477,0.286c-0.196,0.102-0.344,0.167-0.44,0.198c-0.167,0.046-0.313,0.043-0.438-0.007
		c-0.124-0.049-0.232-0.133-0.326-0.252l-4.369-5.496c-0.094-0.116-0.155-0.242-0.186-0.375s0.005-0.274,0.106-0.426
		c0.087-0.127,0.197-0.262,0.332-0.406c0.136-0.146,0.257-0.264,0.364-0.356l-0.302-0.38l-3.419,2.718l0.302,0.38
		c0.109-0.074,0.26-0.158,0.451-0.25c0.192-0.091,0.359-0.158,0.5-0.201c0.192-0.058,0.34-0.062,0.446-0.01
		c0.105,0.053,0.209,0.144,0.308,0.268l4.373,5.501c0.113,0.144,0.175,0.274,0.186,0.399c0.011,0.123-0.024,0.254-0.105,0.394
		c-0.053,0.088-0.164,0.212-0.334,0.37c-0.17,0.16-0.301,0.281-0.393,0.365l0.303,0.379l3.419-2.717L52.763,38.725z M54.575,26.681
		c-0.609,0.107-1.185,0.332-1.725,0.68c-0.521,0.336-0.955,0.758-1.305,1.265c-0.348,0.507-0.582,1.063-0.699,1.671
		c-0.119,0.613-0.115,1.246,0.013,1.898s0.405,1.312,0.832,1.974c0.39,0.604,0.854,1.108,1.394,1.512
		c0.54,0.405,1.102,0.681,1.687,0.83c0.589,0.158,1.192,0.188,1.81,0.09c0.619-0.097,1.211-0.327,1.778-0.694
		c0.533-0.342,0.971-0.766,1.313-1.269c0.343-0.503,0.573-1.052,0.693-1.649c0.128-0.609,0.126-1.244-0.008-1.906
		s-0.41-1.317-0.827-1.965c-0.415-0.643-0.896-1.164-1.439-1.563c-0.545-0.399-1.118-0.672-1.721-0.815
		C55.785,26.595,55.187,26.576,54.575,26.681z M58.953,34.393c-0.207,0.403-0.514,0.737-0.924,1.001
		c-0.438,0.282-0.874,0.43-1.31,0.442c-0.438,0.012-0.867-0.083-1.291-0.287c-0.438-0.206-0.849-0.5-1.234-0.88
		c-0.385-0.379-0.756-0.846-1.112-1.396c-0.32-0.498-0.58-1.004-0.776-1.517c-0.198-0.513-0.31-0.999-0.335-1.459
		c-0.023-0.483,0.057-0.935,0.243-1.353s0.51-0.775,0.969-1.071c0.409-0.265,0.833-0.408,1.268-0.431s0.863,0.062,1.284,0.25
		c0.422,0.193,0.84,0.49,1.25,0.887s0.796,0.875,1.156,1.435c0.351,0.544,0.618,1.068,0.806,1.571
		c0.186,0.504,0.283,0.998,0.294,1.484C59.255,33.548,59.16,33.99,58.953,34.393z M67.661,19.756l-3.565,1.687l0.208,0.438
		c0.139-0.057,0.357-0.107,0.654-0.158c0.296-0.05,0.521-0.063,0.673-0.039c0.167,0.033,0.349,0.17,0.543,0.412
		c0.195,0.244,0.414,0.62,0.655,1.132l1.972,4.171l-8.09-4.355l-2.505,1.185l0.208,0.438c0.16-0.067,0.391-0.111,0.689-0.135
		c0.299-0.022,0.555,0,0.768,0.065c0.16,0.052,0.318,0.155,0.474,0.313s0.277,0.332,0.367,0.521l2.042,4.319
		c0.271,0.573,0.436,0.989,0.494,1.253c0.059,0.262,0.042,0.484-0.047,0.668c-0.039,0.089-0.173,0.232-0.403,0.428
		c-0.229,0.197-0.397,0.326-0.505,0.387l0.207,0.438l3.598-1.7l-0.208-0.438c-0.098,0.039-0.313,0.092-0.646,0.152
		c-0.334,0.063-0.569,0.071-0.707,0.025c-0.187-0.055-0.376-0.201-0.568-0.441c-0.191-0.244-0.407-0.617-0.647-1.123l-2.138-4.524
		l8.707,4.663l0.537-0.254l-3.035-6.422c-0.212-0.449-0.362-0.834-0.448-1.149s-0.08-0.562,0.02-0.733
		c0.071-0.115,0.212-0.26,0.422-0.436c0.211-0.176,0.371-0.29,0.485-0.35L67.661,19.756z M82.902,18.174
		c-0.478-0.556-1.042-0.958-1.696-1.208c-0.48-0.191-1.018-0.303-1.611-0.338c-0.591-0.033-1.17,0.023-1.734,0.169l-4.104,1.058
		l0.121,0.471c0.117-0.021,0.259-0.035,0.426-0.047c0.168-0.01,0.327,0.002,0.481,0.032c0.168,0.031,0.294,0.101,0.375,0.206
		c0.081,0.107,0.141,0.235,0.18,0.385l1.747,6.778c0.041,0.159,0.047,0.304,0.017,0.431c-0.031,0.127-0.105,0.237-0.224,0.33
		c-0.058,0.047-0.187,0.11-0.385,0.188c-0.199,0.076-0.363,0.132-0.491,0.165l0.121,0.47l3.894-1.003
		c0.645-0.166,1.245-0.42,1.802-0.761c0.557-0.342,1.029-0.762,1.418-1.262c0.384-0.5,0.651-1.08,0.799-1.746
		c0.149-0.664,0.121-1.396-0.085-2.194C83.729,19.437,83.38,18.73,82.902,18.174z M82.574,22.451c0,0.519-0.09,0.998-0.268,1.44
		c-0.169,0.421-0.438,0.783-0.807,1.089c-0.369,0.307-0.832,0.532-1.393,0.676c-0.486,0.127-0.865,0.142-1.14,0.047
		c-0.272-0.094-0.461-0.342-0.564-0.742l-1.86-7.217c0.109-0.033,0.276-0.082,0.502-0.147c0.227-0.063,0.43-0.121,0.61-0.167
		c0.543-0.14,1.063-0.162,1.56-0.07s0.945,0.28,1.343,0.563c0.42,0.296,0.779,0.679,1.079,1.144
		c0.299,0.467,0.529,1.016,0.691,1.646C82.493,21.352,82.575,21.931,82.574,22.451z M93.12,21.082
		c-0.037,0.218-0.139,0.562-0.309,1.031c-0.17,0.472-0.346,0.828-0.524,1.072c-0.065,0.092-0.187,0.174-0.364,0.244
		c-0.177,0.072-0.35,0.128-0.519,0.168c-0.165,0.041-0.37,0.077-0.613,0.109c-0.244,0.031-0.441,0.058-0.59,0.078
		c-0.375,0.05-0.666,0.074-0.873,0.078c-0.206,0-0.374-0.035-0.503-0.104s-0.224-0.187-0.287-0.349
		c-0.063-0.159-0.113-0.385-0.151-0.674l-0.379-2.883l1.084-0.143c0.294-0.038,0.533-0.042,0.72-0.012
		c0.186,0.031,0.359,0.125,0.522,0.283c0.101,0.096,0.206,0.262,0.317,0.492s0.189,0.454,0.236,0.668l0.508-0.066l-0.496-3.769
		l-0.508,0.067c0.004,0.197-0.017,0.41-0.058,0.638c-0.041,0.229-0.103,0.416-0.185,0.56c-0.103,0.17-0.229,0.297-0.38,0.385
		c-0.152,0.087-0.402,0.152-0.75,0.199l-1.084,0.143l-0.503-3.822l1.512-0.199c0.249-0.033,0.471-0.057,0.666-0.074
		s0.364-0.025,0.507-0.025c0.276,0,0.589,0.175,0.941,0.52c0.351,0.35,0.595,0.688,0.729,1.02l0.508-0.066l-0.305-2.318l-7.441,0.98
		l0.063,0.48c0.123-0.008,0.291-0.002,0.502,0.016c0.212,0.02,0.382,0.049,0.512,0.092c0.168,0.051,0.284,0.131,0.35,0.24
		c0.064,0.108,0.106,0.238,0.127,0.387l0.91,6.914c0.021,0.166,0.011,0.308-0.031,0.424c-0.043,0.115-0.131,0.217-0.268,0.304
		c-0.063,0.041-0.207,0.09-0.429,0.149s-0.399,0.103-0.535,0.129l0.063,0.48l7.983-1.051l-0.189-2.857L93.12,21.082z M100.07,18.844
		c-0.255-0.146-0.522-0.274-0.797-0.388c-0.303-0.127-0.617-0.245-0.94-0.354c-0.323-0.11-0.652-0.241-0.988-0.394
		c-0.378-0.172-0.667-0.393-0.868-0.663c-0.202-0.272-0.308-0.618-0.315-1.037c-0.008-0.401,0.139-0.744,0.438-1.028
		c0.3-0.283,0.666-0.43,1.099-0.438c0.41-0.01,0.757,0.063,1.043,0.214c0.285,0.151,0.529,0.356,0.73,0.618
		c0.206,0.269,0.375,0.572,0.507,0.906s0.252,0.686,0.359,1.053l0.555-0.012l-0.119-3.217l-0.547,0.01l-0.271,0.471
		c-0.295-0.178-0.621-0.33-0.977-0.459c-0.355-0.131-0.756-0.189-1.203-0.182c-0.393,0.008-0.768,0.084-1.124,0.226
		c-0.358,0.142-0.666,0.333-0.925,0.575c-0.272,0.255-0.481,0.545-0.625,0.867c-0.145,0.322-0.212,0.666-0.205,1.035
		c0.013,0.643,0.175,1.16,0.485,1.553c0.312,0.392,0.743,0.707,1.294,0.94c0.28,0.123,0.613,0.251,0.999,0.386
		c0.387,0.136,0.729,0.258,1.026,0.371c0.438,0.164,0.769,0.411,0.993,0.743c0.225,0.33,0.342,0.689,0.35,1.078
		c0.005,0.265-0.025,0.499-0.092,0.704c-0.065,0.205-0.171,0.384-0.313,0.537c-0.143,0.154-0.33,0.275-0.563,0.361
		c-0.234,0.086-0.507,0.134-0.821,0.14c-0.42,0.009-0.789-0.063-1.108-0.218c-0.32-0.152-0.602-0.361-0.844-0.625
		c-0.256-0.282-0.464-0.588-0.622-0.916c-0.159-0.327-0.301-0.694-0.423-1.103l-0.554,0.011l0.162,3.32l0.547-0.011l0.284-0.505
		c0.318,0.185,0.694,0.341,1.13,0.466c0.437,0.126,0.87,0.185,1.303,0.176c0.938-0.019,1.72-0.313,2.342-0.881
		c0.621-0.567,0.924-1.282,0.906-2.138c-0.007-0.36-0.062-0.674-0.166-0.943c-0.104-0.27-0.26-0.518-0.469-0.738
		C100.55,19.16,100.325,18.99,100.07,18.844z M106.857,23.684c-0.149-0.014-0.331-0.049-0.545-0.106
		c-0.212-0.057-0.366-0.107-0.459-0.149c-0.153-0.078-0.262-0.177-0.32-0.298c-0.058-0.12-0.083-0.255-0.073-0.405l0.453-7.006
		c0.01-0.151,0.048-0.285,0.115-0.403c0.068-0.119,0.188-0.201,0.365-0.244c0.147-0.035,0.321-0.063,0.519-0.08
		c0.198-0.018,0.367-0.023,0.508-0.019l0.031-0.483l-4.358-0.283l-0.03,0.484c0.13,0.018,0.298,0.057,0.502,0.118
		s0.373,0.124,0.505,0.187c0.182,0.084,0.295,0.184,0.338,0.293s0.059,0.244,0.049,0.404l-0.454,7.012
		c-0.012,0.183-0.055,0.322-0.13,0.421c-0.075,0.098-0.189,0.172-0.344,0.221c-0.098,0.031-0.264,0.047-0.497,0.05
		c-0.233,0.004-0.411,0.006-0.534,0.008l-0.032,0.483l4.358,0.282L106.857,23.684z M118.62,21.533l-4.19-0.717l-0.084,0.492
		c0.142,0.034,0.338,0.09,0.585,0.166c0.249,0.077,0.441,0.161,0.577,0.254c0.151,0.096,0.239,0.221,0.268,0.375
		c0.025,0.155,0.021,0.327-0.01,0.516l-0.091,0.525c-0.027,0.166-0.063,0.367-0.105,0.605c-0.043,0.238-0.104,0.471-0.179,0.697
		c-0.158,0.112-0.41,0.201-0.757,0.267c-0.348,0.065-0.719,0.065-1.114-0.003c-0.531-0.092-0.986-0.286-1.364-0.587
		c-0.38-0.302-0.675-0.677-0.886-1.123c-0.211-0.438-0.344-0.938-0.398-1.502c-0.055-0.562-0.031-1.147,0.073-1.755
		c0.118-0.687,0.298-1.297,0.542-1.829s0.535-0.962,0.873-1.287c0.345-0.339,0.723-0.574,1.134-0.705
		c0.411-0.13,0.858-0.155,1.339-0.073c0.441,0.075,0.805,0.225,1.094,0.447c0.288,0.223,0.519,0.494,0.69,0.814
		c0.172,0.321,0.297,0.672,0.376,1.053c0.077,0.381,0.133,0.764,0.164,1.148l0.552,0.094l0.512-3.353l-0.539-0.092l-0.354,0.411
		c-0.272-0.237-0.6-0.454-0.977-0.653c-0.377-0.198-0.836-0.345-1.375-0.437c-0.674-0.115-1.328-0.098-1.961,0.051
		c-0.634,0.148-1.202,0.41-1.705,0.787c-0.52,0.384-0.952,0.865-1.3,1.447c-0.346,0.582-0.582,1.235-0.707,1.965
		c-0.13,0.754-0.119,1.459,0.027,2.113s0.397,1.231,0.751,1.731c0.35,0.493,0.788,0.903,1.315,1.231
		c0.525,0.325,1.095,0.541,1.706,0.645c0.57,0.098,1.164,0.125,1.781,0.083c0.618-0.043,1.248-0.147,1.893-0.315
		c0.012-0.123,0.031-0.279,0.055-0.469c0.027-0.189,0.085-0.555,0.177-1.094l0.127-0.741c0.028-0.166,0.081-0.306,0.159-0.42
		c0.077-0.114,0.189-0.192,0.335-0.237c0.122-0.033,0.275-0.051,0.463-0.049c0.187,0.001,0.336,0.005,0.445,0.01L118.62,21.533z
		 M130.753,19.697l-3.771-1.153l-0.143,0.464c0.143,0.053,0.34,0.161,0.593,0.324c0.253,0.162,0.427,0.304,0.523,0.425
		c0.103,0.135,0.144,0.358,0.124,0.67c-0.018,0.312-0.11,0.737-0.275,1.276l-1.35,4.412l-3.052-8.666l-2.65-0.811l-0.142,0.465
		c0.162,0.059,0.363,0.182,0.6,0.365s0.411,0.373,0.524,0.564c0.084,0.145,0.131,0.328,0.139,0.55s-0.017,0.433-0.079,0.634
		l-1.396,4.568c-0.187,0.606-0.346,1.027-0.479,1.26c-0.134,0.234-0.296,0.388-0.484,0.463c-0.088,0.04-0.283,0.055-0.585,0.046
		c-0.304-0.01-0.515-0.028-0.635-0.055l-0.142,0.465l3.804,1.163l0.143-0.465c-0.099-0.033-0.292-0.141-0.58-0.319
		c-0.289-0.179-0.469-0.332-0.539-0.458c-0.104-0.164-0.145-0.4-0.124-0.709s0.113-0.73,0.277-1.268l1.463-4.784l3.301,9.309
		l0.567,0.175l2.077-6.793c0.146-0.475,0.293-0.859,0.441-1.152c0.15-0.291,0.32-0.469,0.51-0.529
		c0.129-0.037,0.331-0.049,0.604-0.037c0.272,0.012,0.471,0.033,0.594,0.066L130.753,19.697z M143.021,25.9l-6.762-3.488
		l-0.223,0.431c0.106,0.063,0.239,0.164,0.403,0.3c0.164,0.137,0.286,0.258,0.369,0.367c0.107,0.139,0.157,0.27,0.148,0.396
		c-0.01,0.127-0.047,0.256-0.116,0.391l-3.211,6.22c-0.074,0.146-0.168,0.257-0.274,0.331c-0.109,0.076-0.237,0.108-0.385,0.098
		c-0.076-0.002-0.22-0.047-0.432-0.133c-0.212-0.087-0.382-0.158-0.507-0.212l-0.222,0.431l3.735,1.929l0.223-0.433
		c-0.104-0.058-0.246-0.16-0.428-0.305c-0.181-0.145-0.295-0.248-0.342-0.308c-0.1-0.132-0.147-0.265-0.147-0.398
		c0.002-0.132,0.037-0.265,0.105-0.397l1.53-2.967l0.993,0.514c0.26,0.134,0.468,0.275,0.625,0.426
		c0.156,0.15,0.257,0.332,0.302,0.544c0.028,0.144,0.019,0.347-0.027,0.61c-0.045,0.264-0.106,0.486-0.188,0.672l0.456,0.234
		l1.75-3.39l-0.456-0.235c-0.13,0.205-0.279,0.383-0.443,0.537s-0.309,0.254-0.436,0.301c-0.186,0.069-0.376,0.093-0.576,0.069
		c-0.199-0.022-0.448-0.112-0.749-0.267l-0.993-0.514l1.787-3.463l1.446,0.748c0.219,0.111,0.412,0.217,0.58,0.313
		c0.169,0.097,0.311,0.187,0.428,0.267c0.229,0.164,0.383,0.498,0.465,1.002c0.08,0.504,0.081,0.937,0.001,1.301l0.455,0.234
		L143.021,25.9z M149.951,30.5c-0.338-0.52-0.772-0.958-1.306-1.317c-0.515-0.347-1.072-0.58-1.675-0.702
		c-0.604-0.119-1.207-0.115-1.813,0.016c-0.611,0.132-1.191,0.385-1.74,0.759c-0.549,0.375-1.045,0.889-1.485,1.542
		c-0.402,0.597-0.683,1.223-0.842,1.877c-0.158,0.654-0.19,1.279-0.099,1.876c0.088,0.603,0.298,1.17,0.631,1.699
		c0.332,0.528,0.777,0.981,1.337,1.36c0.525,0.354,1.087,0.59,1.685,0.707c0.597,0.116,1.193,0.111,1.79-0.014
		c0.608-0.121,1.192-0.375,1.749-0.758c0.555-0.385,1.048-0.895,1.479-1.534c0.428-0.634,0.718-1.28,0.871-1.938
		c0.154-0.658,0.177-1.293,0.071-1.902C150.504,31.576,150.286,31.018,149.951,30.5z M144.585,37.562
		c-0.452-0.031-0.881-0.184-1.285-0.455c-0.431-0.291-0.737-0.635-0.921-1.031c-0.184-0.396-0.266-0.828-0.246-1.299
		c0.02-0.481,0.126-0.977,0.324-1.48c0.197-0.504,0.479-1.029,0.846-1.573c0.331-0.491,0.693-0.929,1.088-1.312
		c0.394-0.383,0.796-0.678,1.209-0.883c0.434-0.213,0.88-0.315,1.338-0.31s0.914,0.162,1.367,0.468
		c0.404,0.272,0.703,0.604,0.896,0.995c0.193,0.392,0.283,0.818,0.276,1.279c-0.012,0.466-0.119,0.965-0.323,1.498
		c-0.202,0.534-0.49,1.075-0.862,1.628c-0.361,0.536-0.737,0.988-1.127,1.359c-0.391,0.369-0.807,0.653-1.249,0.854
		C145.481,37.504,145.037,37.591,144.585,37.562z M161.221,39.816l-2.978-2.619l-0.321,0.363c0.104,0.104,0.238,0.27,0.403,0.5
		c0.165,0.229,0.269,0.44,0.314,0.631c0.041,0.168-0.02,0.396-0.177,0.687c-0.156,0.289-0.402,0.624-0.736,1.003l-2.626,2.984
		c-0.182,0.205-0.39,0.383-0.624,0.533c-0.237,0.15-0.506,0.256-0.809,0.317c-0.318,0.065-0.659,0.046-1.018-0.058
		c-0.361-0.105-0.729-0.323-1.105-0.654c-0.4-0.352-0.662-0.689-0.787-1.012c-0.124-0.32-0.171-0.635-0.138-0.939
		c0.036-0.296,0.126-0.57,0.272-0.82c0.145-0.252,0.304-0.475,0.475-0.67l3.538-4.02c0.099-0.113,0.21-0.199,0.334-0.262
		c0.124-0.061,0.262-0.061,0.414,0.002c0.09,0.037,0.22,0.104,0.389,0.205c0.17,0.101,0.304,0.191,0.402,0.272l0.321-0.364
		l-3.032-2.67l-0.321,0.365c0.08,0.082,0.173,0.197,0.281,0.343c0.109,0.147,0.184,0.281,0.227,0.405
		c0.061,0.174,0.075,0.318,0.042,0.434c-0.03,0.115-0.1,0.232-0.205,0.353l-3.789,4.306c-0.24,0.273-0.414,0.587-0.519,0.941
		s-0.129,0.729-0.071,1.126c0.062,0.399,0.212,0.807,0.453,1.223c0.243,0.415,0.582,0.815,1.021,1.201
		c0.273,0.241,0.595,0.453,0.965,0.636c0.371,0.184,0.772,0.301,1.206,0.354c0.441,0.051,0.878,0,1.308-0.15
		c0.431-0.148,0.822-0.427,1.177-0.831l2.787-3.166c0.313-0.356,0.601-0.637,0.861-0.844c0.262-0.207,0.484-0.3,0.67-0.274
		c0.184,0.026,0.384,0.103,0.601,0.228c0.219,0.125,0.375,0.228,0.476,0.309L161.221,39.816z M168.9,48.49l-2.599-2.969
		l-0.364,0.319c0.093,0.119,0.204,0.313,0.333,0.586c0.128,0.272,0.201,0.483,0.221,0.638c0.014,0.168-0.068,0.381-0.248,0.635
		c-0.179,0.255-0.482,0.567-0.907,0.939l-3.471,3.039l1.973-8.974l-1.825-2.087l-0.365,0.32c0.106,0.137,0.213,0.344,0.316,0.627
		c0.104,0.28,0.152,0.533,0.148,0.756c-0.005,0.166-0.063,0.348-0.172,0.541c-0.109,0.192-0.243,0.358-0.401,0.496l-3.596,3.147
		c-0.478,0.417-0.833,0.688-1.069,0.817c-0.236,0.127-0.455,0.174-0.656,0.138c-0.096-0.013-0.27-0.103-0.521-0.269
		c-0.252-0.168-0.422-0.295-0.51-0.381l-0.365,0.319l2.621,2.993l0.365-0.319c-0.065-0.082-0.175-0.274-0.325-0.579
		c-0.151-0.304-0.224-0.529-0.217-0.674c0.001-0.193,0.091-0.415,0.27-0.667c0.18-0.251,0.481-0.562,0.902-0.931l3.765-3.295
		l-2.099,9.649l0.392,0.447l5.344-4.679c0.374-0.326,0.701-0.575,0.982-0.745c0.281-0.171,0.518-0.231,0.712-0.183
		c0.13,0.039,0.307,0.133,0.533,0.287c0.225,0.154,0.382,0.277,0.469,0.37L168.9,48.49z M172.415,58.533
		c0.363-0.633,0.553-1.301,0.571-2c0.019-0.519-0.055-1.063-0.222-1.633s-0.413-1.096-0.739-1.578l-2.37-3.515l-0.402,0.271
		c0.06,0.104,0.121,0.231,0.187,0.386c0.065,0.153,0.108,0.31,0.132,0.464c0.026,0.17,0.002,0.311-0.07,0.423
		s-0.174,0.211-0.302,0.298l-5.804,3.914c-0.136,0.092-0.27,0.146-0.399,0.159c-0.132,0.013-0.26-0.019-0.385-0.101
		c-0.065-0.038-0.167-0.137-0.306-0.301c-0.14-0.16-0.246-0.297-0.32-0.406l-0.402,0.271l2.248,3.333
		c0.372,0.551,0.813,1.032,1.32,1.443c0.507,0.41,1.062,0.716,1.664,0.914c0.599,0.195,1.235,0.252,1.912,0.169
		c0.676-0.082,1.355-0.353,2.04-0.813C171.504,59.732,172.054,59.167,172.415,58.533z M168.278,59.654
		c-0.489,0.176-0.972,0.252-1.447,0.231c-0.452-0.019-0.885-0.151-1.297-0.396c-0.411-0.244-0.779-0.607-1.103-1.086
		c-0.279-0.416-0.423-0.769-0.426-1.059c-0.003-0.289,0.167-0.551,0.512-0.782l6.178-4.167c0.068,0.092,0.17,0.234,0.307,0.424
		c0.138,0.192,0.258,0.365,0.362,0.52c0.313,0.465,0.509,0.947,0.588,1.445c0.078,0.5,0.05,0.984-0.083,1.455
		c-0.139,0.494-0.378,0.961-0.717,1.397s-0.778,0.838-1.318,1.202C169.286,59.208,168.768,59.48,168.278,59.654z M171.493,71.46
		c-0.047-0.104-0.088-0.24-0.126-0.411c-0.038-0.17-0.051-0.315-0.041-0.438c0.024-0.186,0.066-0.342,0.125-0.469
		c0.058-0.126,0.152-0.26,0.28-0.4l6.021-6.647l-0.246-0.489c-1.265,0.122-2.708,0.26-4.327,0.418c-1.62,0.155-3.083,0.289-4.39,0.4
		c-0.255,0.021-0.465,0.018-0.63-0.014c-0.165-0.028-0.344-0.096-0.536-0.203c-0.117-0.069-0.233-0.174-0.352-0.313
		c-0.119-0.138-0.209-0.259-0.271-0.36l-0.434,0.218l1.642,3.264l0.435-0.218c-0.146-0.33-0.239-0.645-0.278-0.947
		c-0.039-0.302,0.023-0.492,0.187-0.574c0.068-0.035,0.163-0.07,0.283-0.105c0.12-0.034,0.281-0.07,0.483-0.104
		c0.207-0.035,0.435-0.068,0.683-0.104c0.247-0.034,0.542-0.068,0.886-0.098l1.529,3.043l-1.582,1.695l-0.122,0.106l-0.128,0.08
		c-0.09,0.045-0.217-0.022-0.384-0.201s-0.34-0.422-0.52-0.729l-0.435,0.217l1.813,3.604L171.493,71.46z M171.536,63.803
		l4.014-0.397l-2.702,3.006L171.536,63.803z M182.644,75.984l-2.876-7.953l-2.476,0.896l0.162,0.45
		c0.155-0.014,0.359-0.01,0.611,0.011s0.497,0.06,0.737,0.119c0.238,0.06,0.462,0.138,0.669,0.233
		c0.207,0.098,0.346,0.215,0.414,0.349c0.086,0.173,0.169,0.354,0.245,0.551c0.078,0.195,0.141,0.358,0.188,0.491l0.135,0.373
		l-7.354,2.66c-0.177,0.064-0.329,0.082-0.457,0.053s-0.247-0.104-0.354-0.225c-0.073-0.082-0.166-0.24-0.281-0.478
		c-0.114-0.237-0.197-0.413-0.25-0.53l-0.457,0.166l1.559,4.307l0.457-0.165c-0.046-0.138-0.087-0.339-0.125-0.604
		s-0.055-0.443-0.054-0.531c0.01-0.172,0.063-0.311,0.158-0.412c0.097-0.104,0.215-0.18,0.356-0.231l7.296-2.639l0.136,0.374
		c0.063,0.171,0.125,0.359,0.189,0.564s0.113,0.377,0.144,0.516c0.03,0.15-0.001,0.328-0.094,0.533
		c-0.093,0.207-0.215,0.41-0.365,0.61c-0.144,0.192-0.303,0.378-0.479,0.556s-0.334,0.313-0.475,0.407l0.161,0.444L182.644,75.984z
		 M175.031,84.029c-0.034-0.146-0.057-0.33-0.07-0.551c-0.013-0.219-0.015-0.381-0.003-0.482c0.026-0.17,0.086-0.305,0.183-0.396
		c0.095-0.094,0.216-0.16,0.361-0.197l6.79-1.781c0.146-0.038,0.285-0.045,0.419-0.018c0.136,0.025,0.25,0.115,0.348,0.269
		c0.081,0.129,0.159,0.286,0.238,0.468c0.078,0.182,0.138,0.34,0.179,0.477l0.469-0.123l-1.108-4.227l-0.469,0.123
		c0.024,0.131,0.039,0.302,0.046,0.516c0.005,0.211,0,0.392-0.018,0.537c-0.024,0.2-0.081,0.338-0.171,0.413
		c-0.092,0.076-0.215,0.134-0.368,0.175l-6.797,1.783c-0.177,0.046-0.323,0.049-0.439,0.01c-0.117-0.041-0.223-0.127-0.318-0.257
		c-0.059-0.083-0.128-0.235-0.203-0.454c-0.077-0.222-0.136-0.39-0.176-0.507l-0.47,0.123l1.108,4.226L175.031,84.029z
		 M185.565,90.665c0.151-0.601,0.18-1.218,0.083-1.853c-0.094-0.613-0.301-1.184-0.621-1.707c-0.321-0.525-0.734-0.965-1.24-1.32
		c-0.511-0.36-1.091-0.615-1.738-0.766c-0.648-0.148-1.361-0.164-2.141-0.046c-0.712,0.109-1.362,0.327-1.95,0.655
		c-0.589,0.327-1.069,0.727-1.444,1.199c-0.384,0.475-0.657,1.013-0.821,1.615c-0.163,0.604-0.194,1.239-0.092,1.906
		c0.096,0.627,0.303,1.199,0.622,1.717c0.318,0.519,0.727,0.955,1.224,1.308c0.503,0.366,1.083,0.622,1.743,0.771
		c0.659,0.148,1.369,0.163,2.13,0.047c0.757-0.115,1.429-0.341,2.017-0.675c0.587-0.334,1.069-0.747,1.446-1.237
		C185.151,91.802,185.412,91.264,185.565,90.665z M176.739,91.511c-0.285-0.354-0.464-0.771-0.538-1.253
		c-0.079-0.513-0.035-0.972,0.131-1.375c0.167-0.403,0.431-0.757,0.789-1.062c0.367-0.313,0.803-0.57,1.308-0.767
		s1.081-0.345,1.729-0.444c0.585-0.09,1.153-0.121,1.701-0.092c0.549,0.029,1.039,0.127,1.469,0.291
		c0.451,0.176,0.829,0.434,1.135,0.774c0.307,0.34,0.5,0.78,0.583,1.321c0.074,0.48,0.032,0.926-0.125,1.332
		c-0.155,0.405-0.406,0.764-0.752,1.069c-0.349,0.308-0.789,0.567-1.318,0.78c-0.53,0.212-1.123,0.367-1.781,0.469
		c-0.639,0.098-1.228,0.129-1.763,0.094c-0.536-0.035-1.028-0.149-1.477-0.339C177.385,92.13,177.023,91.863,176.739,91.511z
		 M186.418,105.352l-0.089-3.942l-0.485,0.011c-0.006,0.151-0.046,0.372-0.121,0.662c-0.075,0.292-0.156,0.502-0.239,0.632
		c-0.096,0.139-0.296,0.248-0.597,0.327c-0.302,0.08-0.734,0.126-1.3,0.14l-4.611,0.104l7.27-5.618l-0.063-2.771l-0.485,0.012
		c-0.005,0.173-0.058,0.401-0.159,0.683c-0.1,0.283-0.225,0.508-0.371,0.675c-0.11,0.126-0.271,0.227-0.479,0.305
		c-0.208,0.08-0.417,0.121-0.626,0.125l-4.777,0.107c-0.633,0.016-1.081-0.005-1.345-0.059c-0.264-0.053-0.46-0.158-0.591-0.314
		c-0.066-0.072-0.143-0.252-0.229-0.542c-0.085-0.29-0.135-0.495-0.146-0.618l-0.485,0.012l0.09,3.978l0.485-0.011
		c0.002-0.104,0.043-0.322,0.122-0.652s0.168-0.55,0.266-0.656c0.124-0.148,0.336-0.262,0.635-0.339
		c0.301-0.077,0.729-0.123,1.29-0.136l5.002-0.114l-7.801,6.059l0.014,0.595l7.102-0.161c0.496-0.011,0.907,0.007,1.231,0.058
		c0.325,0.049,0.546,0.154,0.663,0.316c0.075,0.113,0.15,0.299,0.226,0.563c0.075,0.263,0.116,0.456,0.123,0.585L186.418,105.352z"
		/>
</g>
<g id="Capa_1" display="none">
	<title>idf-logo-full-texttry</title>
</g>
</svg>
